<svg fill="none" height="457" viewBox="0 0 1129 457" width="1129" xmlns="http://www.w3.org/2000/svg"><g fill="#1e2d32" opacity=".02"><path d="m202.635 6.91784-201.846914 271.37516v73.511h203.990914l-.306 98.013h86.068v-98.013h68.303v-75.042h-68.303v-269.84416zm-119.1479 269.84416 121.2919-162.335v162.335z"/><path d="m562.07.791992c-105.671 0-170.912 81.473908-170.912 228.801008 0 146.408 63.709 226.963 170.912 226.963 106.59 0 170.298-80.555 170.298-227.27 0-147.3264-64.934-228.494008-170.298-228.494008zm0 382.560008c-53.295 0-77.799-43.494-77.799-153.759 0-112.41 25.116-158.3537 77.492-158.3537 52.377 0 76.574 45.3317 76.574 158.3537 0 110.878-23.279 153.759-76.267 153.759z"/><path d="m972.579 6.91784-201.847 271.37516v73.511h203.991l-.307 98.013h86.064v-98.013h68.31v-75.042h-68.31v-269.84416zm-119.148 269.84416 121.292-162.335v162.335z"/></g></svg>